/* XPM */
static char *_7b5685c49e34d7ed8b6b3959d373f26qgKUwbbmtDwefg8Y[] = {
/* columns rows colors chars-per-pixel */
"100 100 73 1 ",
"  c #0B090F",
". c #0F0D15",
"X c #130F13",
"o c #100E18",
"O c #161116",
"+ c #181317",
"@ c #171419",
"# c #1A151A",
"$ c #1E191E",
"% c #201A1F",
"& c #191722",
"* c #1F1A20",
"= c #231D23",
"- c #262126",
"; c #282127",
": c #272228",
"> c #2B252B",
", c #2E292E",
"< c #30272D",
"1 c #302A2F",
"2 c #2F2A30",
"3 c #24253B",
"4 c #2C2A3B",
"5 c #332B31",
"6 c #362B30",
"7 c #332D32",
"8 c #342C33",
"9 c #332E34",
"0 c #372F34",
"q c #382D33",
"w c #392E34",
"e c #373035",
"r c #353036",
"t c #3A3037",
"y c #3D3237",
"u c #373138",
"i c #373338",
"p c #3A3339",
"a c #3A333B",
"s c #3C3338",
"d c #3C353B",
"f c #3C353C",
"g c #3E373D",
"h c #3D383E",
"j c #3F383E",
"k c #40373D",
"l c #403A3F",
"z c #383540",
"x c #3E3A41",
"c c #3F3A41",
"v c #413940",
"b c #433D43",
"n c #453D43",
"m c #423E44",
"M c #473F46",
"N c #454046",
"B c #484147",
"V c #46434A",
"C c #4A444B",
"Z c #4C444B",
"A c #4E494E",
"S c #4F4A51",
"D c #504750",
"F c #544E54",
"G c #584F57",
"H c #594F59",
"J c #575156",
"K c #5C555D",
"L c #5B585E",
"P c #5D5C6F",
"I c #635C64",
"U c #616072",
"Y c #6E6670",
/* pixels */
"<==++#=1ee88eee=5g>>>>>,157779cmceeeee,#j750eeeeeeeepggg0pgpee555,-#+=:===========$+50,,07pgpp0+=vCn",
"w<;==;5ett077,5>57>>>>>>,77770uuepeeee,$s550eeeeeeeeeggggggpee7555=#-u72,>>>>,,5,,9#,,,,,,55,,,#%jkd",
"yq,;>8ttttt8775,>>>>>>>>57770uuuueeeeu7$7,50eeeeeeeetsggggdpe075,5=#;72,>>;>>>,,209#,,,,,1,,,,8=$kss",
"yw<>Zttttt077555>>>>>>,,2579uuuuu00eese#>>,50eeeeeeepggggdpe755,,,=+>72>>--;>>>,279#,,,,,,55870;%sss",
"yy58ntttt0888722,>>>>>>,2270uuuue990epe#>>,,50eeeeeppsgdpp055,,1,,=+>72>;--->>>,255+,5,,,5550005%sss",
"yywtstttt870tt772>>>,5522790uuuue9979u:#>>>,58eeeeeeppppt0551,,,>>=#;72,>---->>,555+-55,,,555005=sss",
"yyyyytttt870tt8752,55522779euuue99775*+#>>>,7eeeeeeepppe755,,,,>>>=#;77,>---->,,27=+#,55,,,57005=sss",
"yyyyytttt88tte8775555772270uue999977,=+@>>,,5888eeeetp05551,,,,>>5=#:7,>----;>,,,9-+$-5555,5500,%wss",
"1qyyyyyytttett8752257772279e07779977u7=+;>>,,1550eeeee755,,,>,,>>;=#=5,>;>>>>,,,57>+=,5555555005++>w",
"<6yyyyyyttttet885522252727797777777777;#=>>>,,558eeee755,,,,>,,;>>-#+=->>;>>>,,,505#575555555881#%>1",
"yyyyyttttttet88877225225799977777777705$=>>>,,557e87555,,,1,>>,;>>;#+$-5,>>>>>,25ee=e5555555557,>ttt",
"yyytt8q8tt0888787772557779999777777770,#=>>,,,,55555551,,,55,;;;>>;$+-s,>>,,,,,27ee$755555555551>ttt",
"yyyt8q88008887757775222799999777777799,#=>>,,,,5555555,,,,555,>>>>>$#29,>,,,,,,59ee*555555555551;ttt",
"ytw00q8888877777775522257779977777779e>#=>>,,,,,555555;5,155551,,,,$#,5,,,,,,,559eu$555555pg5551;ttt",
"w888qwq88q888887552522557777777777777e2#->>,,,,555508,>55555555511,$+555,,,52,550ee#,5555555555>-ttt",
"8ww8q88q8t080tt855522227777777777777999##>,,,55875000>,;,555555555>@#5555,55555-ee0*-551,,,,,,;#$8tt",
"wttt88888et0ttt85555255257777777777799e$+#=-;;,57772,;=====;>,,>>;++#555555555;#00=##==$$*$$$##+X+=>",
"tttt88880tttpppe7755552257777222777799u*=====-;>-=--==$#+++#======$==*-;;;;===$$-=$=$$$$##+XX+$$+;88",
"ttyttq8qtppppppte077775,5777,,,2797770p=;vnnCZZCCnZZZFDb,$-ZCnnlggsp70epssgggspsggu07gjccj,,cpe5#58t",
"ttttyqqqtppppppste77722,,,,,,,,,790770p#$vZYIKZCBnnnbbbFG0BF666660000000000euuupuue0709eSmj0,,,,#>gt",
"tttttqqqttttppptee77255,,,,,>>>,299970p+#MZHstttt060ppwwssn085580eu0000000uuuuuuue0775,,5CC,,,,>#svt",
"ttpptq88ettttpptee77225,,,>>>>>,,79900p+$pDbtt606666wpwwppgst000psse00000uuuuuuue00775,,,,e,,,,;$pgt",
"ppddt87780ettpspee77755,,,,,>,,,57990uu##1k6666666660ppdggggssppssp000000eeuuuu000777775,,,,,,,;$gnd",
"ddddw777780tppsptee7755,,,,,,,,,5700esu##10666615666wpdgdgggdssssss00000000upsu0077777775,,,,,7>$eng",
"jjdt877788ttpppptee7715,,,>,,,,,,790ep;+#60565<<<660ttddddggdsssssu0000000usssue0077777777,,,,7>*0ng",
"vjpt887788tttppptee8775,,,>>,,,,,,7ee=#++tw<<<<<<<5wttdgddddsssssppp0000upsssspee00909777,,,,,,,=eNv",
"jddt87778ttttpttee0777,,,>>,>,>>,,>:=$$#Xtw,<<<<<<666tdggggsssssssssue0eussssssuuu0009777,,,,,,7=eCn",
"jdttt7780tettteeeee777,,,>>>,>>,,,,2jN,$X0w,<<<<<<1<6wdggggdsssssssspu0uupssssssuu0000777,,,,,,7=sBn",
"vgst8770eeeeeteeeee772,,,,,,>,>,,,,7evj=X1w<<<<<<<<50tdggggggggsssssuuuuuusssspsuu0000077,,,,,,2=enn",
"vjdt8777770eeteeteee75,,,,,,,,>,,,27uus-X;6<<<<<<<6wddggggggggggssssuuuuuusspuuspu00000075,,,,,,:$sn",
"vjdt877770eeeeeeeeee772,,,,,,,,>,,79ugs-O=<<<<<<<<6djlkkgggssdssssspsuuuussspuupue00000975,,,,,,>#0n",
"vjdt87117700eeeeeee77775,,,,,,,>,,77ejg-+=><<<<<<1tglllllggddggsssspuuuuusssspuuee00007777,,,,,57$jn",
"ndpt871117777e0teee7777575555,,,>,,27uj>+-<<<<<>=dgllllvblgggggsssspeueeuuppssue00097777772,,>,,5$FV",
"Njdt81,,111,7700e777777777777,,,,,,,27c9+><<>=%%gvlllllnnvgjllgssspuu0900euuuue000097777772,,>,,,#CF",
"Njdt8,-,,11,77777#7e7777777777,,,,,,,2e,+;<<;=8gdgllvnnnnnvllljdssuuue9990uuuue000097777777,,,,,>#,L",
"Fvjd0,$,,,15779e=#ee87777777775,,,,,,,9>+=,<8800tdglvnbnnnblllldsspuue999euue0e000097777775,,,,,,$-S",
"Fnvjs1$7,,,177e2$=eee7777777777,,,,,,,7>+=d<<<80tddllvllvvllljgdssspuuee0euue000000977777775,>,,,$=L",
"77ujje#j7,,,,55-$-ee077777777777,,,,,,2$X=,<<<00ddgllllllllggdssssssueeeeuue0007777777777775,,,,,#=A",
"==*=;>+7-----==$+#*--------------->>>>-=+=-;,<80pdglllddgllggsssssspuueeeuue0077777777777777,,,>-+#=",
"+#$=====$=---=$$---=>7##-->j9>=++#>2>-$XX=-;<100wddddddddtpzgepsppppeueeuuu0755555,,,,,,>>:-=$##++++",
"=7ussssuju0uss7eeeeejs,2ssNNce7#sVvCmgu:X+$====-;;;;;-==#+@#O-*#@@$$*----*$$$$$$->>:=->>2727e>+=e>#+",
">0usssu9990eeeeeee07775,777777:=uuuus7eu+X+$-7>>79977vvje  oPUVVmjge=@@$9jmcg>>NVVVN2egjcccvVC=Nu7:$",
"7ue9eu0e997779997777777,7777779-usssuge9$+$7jCetscCnpppps@.33uVVcNVCc>@-gVcuuu9gccVu2e79euugc-*299>>",
"0099eeee9975552277777777777777e7usssgmju>+=ps5,11gvpppppp$&44sFjjcccjj:>cguue9999992c77779997=*,uue-",
"00999977551525,25,577777777779eussgggsjcu+,j78007jt8t08eu>*esmvspjjcjjeujue999999997g77777777>*2uuu7",
"00999777751,,,,,,522777777779eusgsggpsgjj#,etttttcte888879$ujsespfjjjju2se9997797797777777799>*2uuuu",
"0000977755,,,,,,,52577779799eussggggppjgj=>tettttttt887770*sjueusfjjjjs>e99977779977777777999,*2ueee",
"0099977555,,,,,,,52577779999eeuuuuggspggj-;888ttteee787770=gseeeesssgcg:ue9777777777777779euu7*2eeee",
"0977075755,,,,,,,22790779099eeeuuuugssjge$=588t00e0888888e=s07770essgcj=uu977777777779979euuuu*9eeee",
"99779755,,,,,,,,,5279eeeeeeeeeeeuugggsse#+=15888888888888e=055555eeuscg#9e97777779eee9e99euuuu=ceeee",
"9997752,,,>>,,,,5579euuuuueeeeeeuuusssu$++-15888888888887=#2,5,,27eesg9#:u0777777euue99eeuusuu=ceeee",
"997792,,>>>>>,,55770eeuueeeeeeeuuuuu2>-:-+-1117888888888,##=>>,,>29ee9$#=7e977779euuuuuuuuuggg=ceeee",
"007772,,>>>,>,,,779eeeuueeeeeeuuuuu79svV9+=11118888888887-#=-,,>>,59>###=>u9777799euuuuuusgggg=ceeee",
"00775,,,>,,,>,,577eeuuuueeeeeeuuuuuuujjju#,11115888888887,#e,,,>>557,;##7uue797799euuuuuuggggg-juuue",
"90775,,,>>>,,,,579euuuuueeeeuuuuuuuuugjju$111157888888887,#e,,,>,555ej:=u99ee999eeeuuuuugggggs-guuuu",
"99775,,>>>,,,,5779euuuuuuuuuuuuuuuuuugjjj$851577888888888,=7,,,>,,550e-:9999e999uuuufffggggggu=esuuu",
"99775,,,>>,,,,5579eeuuuuuuuuuuuuuuuusjvcj$088878888888885>=,,,,,,,57ee--99999999uuuggggggggggg*,guuu",
"77775,,>>,,,,5,5779eeeuuuuuggpppusddgjmNc#vttttte8888888,>=>,,,,555eee==77779999euusggggg,cmg,#$euuu",
"77755,>>>,,,2,77779eeuuuppjjgjpuudgjjccA-#Nettttt888888,>>#=>>,,5557ee:-777779999eeuffggg2mee###=uuu",
"775,,,>>,,,55557779eeesgppjjjjuuuggjju>2#+>>51,,,,,1515,>-##->>,,,,,2,--755,,,25777eugggg-2>*##,suuu",
"75,,>>>>,122577779eeeeeugjjjjjpusgjccc2,:#++++######$+#######$$##$$$####$$$#######$*=--:=######-duuu",
"75,,,,>,,255777799eeeeeujjjjjjjfggjccmVg9=+#+=,>>,,07#->,,,,,,111>$##=u7775,-$###$=mVVVVcsse77,$dsuu",
"72,,,>,,15777779eeeeeuppjjjjjjjjgjccvvmNe==e*,,9up0>$#--15,,,,577,$-0Ns00000ej;$>7vjjccvvmNnNv$#ggdu",
"75,,,,,,57999eeeeeeuusfjjjjjjjgggjvvvvNV9=ge=,00007,$#-;807,,,,170>>ng0000000p0>mvptteeeddddd0##dggs",
"7722,,,277eeeeeeeeeeeusgjjjjjjggjjvcmVVc>#,=>0070009$#-,eee7,,,,17e>e0000000eee>sspettttsdssee##pggs",
"725555577779eeeeeeeeeessgjjjjcccccvcNVV2#++#29970005$@>>eeee7,,577e5000000000ep0sepetetttteete$#;tgd",
",5557777777799ee97=$$$*-:>>>>>222>,,22>+#$=,7777000,$+=,eee0e8177771700000000essstuueetttteepp*##=;,",
">5777777777777797,2:#@+>5eeeeeue,->>>>>,79,79777000,$+;eee077777777770000000epsssstteetttteete$#=,uc",
"78887777777777755-9u0:#2sBCNNnnvvljjsseepse700000005$=88eee87777777770000000tsssssueeee8ettte=##=eCc",
"eee097777777777,,*;>05#,vZBBnvnnnmvjssse077000000000==8,0eeee777777700000000tpssptee77778eee-###-0je",
"ttt008777777555,-=;;;=#pZCNNnnnnnmvdssee077790000000=$88,0ee87777777700000eepsssptt77757777,#==#>gtt",
"ttttt077755,,,,>#:;;;=+sABNnnnnnnvjgspe007777000000,-+$##$->,7757777700e00eeussstte77755775$=;=$,gtt",
"ttttte075,,,,,,=$;;;;=#,ANnnnnnnnvjgsse007777700005,:++++++++#=,,7777700ttttppppe777555555>$>;=$;gtt",
"tttttt07,,,,,,>#=;;;;:#$vnnnnnnnnnlgdst0077777ee007>*++$>,,##->>,5777700eetptteu7757555555=>>>=##-tt",
"tttttte7,,,,,,;#;;;>;:#$5lvnnnnnnnvgdste077779eee02-@#->222=$>>>,,77770eeetetptee755555555=>;-=+##-t",
"tttttt07,,,,,,-$;;>,,>#=tllvnnnnnnvgssee777970eee9>#@=77222=$=>>,,5770eetepptsssse7555555,=>;==X$=>t",
"tttttte75,,,,,=$;;>,,>#=jllvvnnnvnvdsee9777799eee,$+-gu7222$$$;>,,77700eetsssssspt75555,>>>>===X;7et",
"tttttte85,,,,,=#;;;>,;#>vlllllvvvvllgeee0077eeee7-@,cu00722-##>>,,57700eetsssspppe855>>>>>>====X=>70",
"tttttte77,,,,,;$=-:==*#snvllllllllljgse00000eeee,#,ge0000222=#=>>,70800eetpsse0gjp755>>>>>-====X#>77",
"tt81,,>>;;;;--=####++++jBBvlllllllggspe00000eee9>>eeee000222-##;>1777700eept>#@#>1,5,,,,>>=====XX#78",
">=#+++#*==##+++++##$#++=0nnlllllllddse000000eee0>0epppe0072>=###%=======$$#+++#+##############*=#X$;",
"$$#$#$0eeeee7-#-7992-+me##-5gjgjlljdse000000euee7eppppp000,;:-;=;570>,##0ue0upc5ee0975,,;===#=7jt-=#",
"-;>7=$77777777>-527;++AKesIJdjgggjjdte0000000uue0eppppuee000977-7,,,,,=#50ppu005=0,,,,;;;;;;;=>;----",
"---,,*,5772222552229e$CeNInjllgggggse000000000e0eeppppeee00eee9>,,,,,,=#5222555,=,,,,,,;;;;;;;;;---=",
"--;>>*2252222222222ec=>eJjgjlllljjdsp000000000000eeeupee990eee97,,,,,,=#5555555;-,,,,,,,,;;;;-======",
"--;>-=222222,,2222250$=jCggjljllljssse000000000000eeee79999ee992,,,,,,=$522522,,,,,,,,,,,;--========",
"---=$=,,,,,2,,,,22229$=jCgggjslljjsspe000e000000000eu59000ee09922,,,,,==22552,;;;>,,,,,;;;=========-",
"--$$#=,,>>,,,,,,,,,29$=gvgggjllljgseeetee0000000000eue00000uu0972,,,,,==,,22,,,>;;;;>>;;;;-========;",
"-$$#+$,,>>>>,,,,,,,,,#-jvggggllljgseteee7000000e000ese90999euue07,,,,,$=,,,5=;,,>;;;;;;;;;;;=;-==-;;",
">-##+#,,>>>>>>,,,,,,,#,mvggggjllcjsttee77779000e000euuueeeueepe09222,=#=,,,,>5,,,>;;;;;;;;;;;;;;;;;;",
";j51#+=,>>>>>,,,,,,,,#5Clggggljgjgspee09777700ee00eegguuuuuussue972,,-+=>>,,,555,,;;;;;;;;;;;;;;;;;-",
">>,,#++->>>>,,,,,,,,,#7Cldggggdssspe0ete777900eeuuuesguuuussse7,,>>>;=+#;;;,,,55,,>;;;;;;;;;;;;;;;;;",
">>>,#+X+%>>>>>,,,,,,,+sBdsddgggssss00007777700uuuuuusseeesss,#+++++##++$==>;>,55,,>;;;;;;;;;;;;;;;;;",
">>>;#+$=>>>>>>>,,,55>+vlsssdggggsstee077777700uuuuugssuepss>###+++$=>$+=;;;;;>,,,>;;;;;;;;;==-=-;;;;",
">>;#++=>>>>>>>>,5775-+jvjsssddgdseeee777797700eeeeugggssss,===#++#==;=+;;;;;;;>,,;;;;;;;;;====-;;;;;",
">>=$++=>>>;>>>>,2,,,=#70peeesssse097777900790eeeeessussss0==$#@+++X#$++;;;;;;;;>>;:;;;;;;;===--=-;;;",
">>>=#+$==========$$=#+====$===--==>>>>,,2,,,,,,,,,7-O-7>-#+++++++++XXX*;;;;;;;;;;-:::;;;;;=======;;;",
">>>>#O++++++++++++++++#$$$#+X+5eeeeee>+X=22>>->>>>--=--=++##=,0e,,>#X+>>;;;;;;;;=$:::;;;;;======;;;;",
"===$#OOO++$===$O+#=,,7sgcjss$=ecccgsse=@sVANvvjgjssssgjv,5vvjgggCn>#X$0p----===#+:::::;;;:====-=====",
"OOOOOO+%->0777,+#7e077779eeg,,cNcgeeeu>$eeeeeeeeeeeeujjv,,0e0000dg;++#,0>==**$++@###*=##*==$%$#@++++"
};
